# WAVEFRONT OBJ EXPORTED WITH QUBICLE CONSTRUCTOR v1.6.0.0
# www.qubicle-constructor.com

mtllib head.mtl
usemtl head_simpletex
s off

vt 0.06250 0.93750 
vt 0.06250 0.93750 
vt 0.06250 0.93750 
vt 0.06250 0.93750 
vt 0.18750 0.93750 
vt 0.18750 0.93750 
vt 0.18750 0.93750 
vt 0.18750 0.93750 
vt 0.31250 0.93750 
vt 0.31250 0.93750 
vt 0.31250 0.93750 
vt 0.31250 0.93750 
vt 0.43750 0.93750 
vt 0.43750 0.93750 
vt 0.43750 0.93750 
vt 0.43750 0.93750 
vt 0.56250 0.93750 
vt 0.56250 0.93750 
vt 0.56250 0.93750 
vt 0.56250 0.93750 
vt 0.68750 0.93750 
vt 0.68750 0.93750 
vt 0.68750 0.93750 
vt 0.68750 0.93750 

vt 0.06250 0.81250 
vt 0.06250 0.81250 
vt 0.06250 0.81250 
vt 0.06250 0.81250 
vt 0.18750 0.81250 
vt 0.18750 0.81250 
vt 0.18750 0.81250 
vt 0.18750 0.81250 
vt 0.31250 0.81250 
vt 0.31250 0.81250 
vt 0.31250 0.81250 
vt 0.31250 0.81250 
vt 0.43750 0.81250 
vt 0.43750 0.81250 
vt 0.43750 0.81250 
vt 0.43750 0.81250 
vt 0.56250 0.81250 
vt 0.56250 0.81250 
vt 0.56250 0.81250 
vt 0.56250 0.81250 
vt 0.68750 0.81250 
vt 0.68750 0.81250 
vt 0.68750 0.81250 
vt 0.68750 0.81250 

vt 0.06250 0.68750 
vt 0.06250 0.68750 
vt 0.06250 0.68750 
vt 0.06250 0.68750 
vt 0.18750 0.68750 
vt 0.18750 0.68750 
vt 0.18750 0.68750 
vt 0.18750 0.68750 
vt 0.31250 0.68750 
vt 0.31250 0.68750 
vt 0.31250 0.68750 
vt 0.31250 0.68750 
vt 0.43750 0.68750 
vt 0.43750 0.68750 
vt 0.43750 0.68750 
vt 0.43750 0.68750 
vt 0.56250 0.68750 
vt 0.56250 0.68750 
vt 0.56250 0.68750 
vt 0.56250 0.68750 
vt 0.68750 0.68750 
vt 0.68750 0.68750 
vt 0.68750 0.68750 
vt 0.68750 0.68750 

vt 0.06250 0.56250 
vt 0.06250 0.56250 
vt 0.06250 0.56250 
vt 0.06250 0.56250 
vt 0.18750 0.56250 
vt 0.18750 0.56250 
vt 0.18750 0.56250 
vt 0.18750 0.56250 
vt 0.31250 0.56250 
vt 0.31250 0.56250 
vt 0.31250 0.56250 
vt 0.31250 0.56250 
vt 0.43750 0.56250 
vt 0.43750 0.56250 
vt 0.43750 0.56250 
vt 0.43750 0.56250 
vt 0.56250 0.56250 
vt 0.56250 0.56250 
vt 0.56250 0.56250 
vt 0.56250 0.56250 
vt 0.68750 0.56250 
vt 0.68750 0.56250 
vt 0.68750 0.56250 
vt 0.68750 0.56250 

vt 0.06250 0.43750 
vt 0.06250 0.43750 
vt 0.06250 0.43750 
vt 0.06250 0.43750 
vt 0.18750 0.43750 
vt 0.18750 0.43750 
vt 0.18750 0.43750 
vt 0.18750 0.43750 
vt 0.31250 0.43750 
vt 0.31250 0.43750 
vt 0.31250 0.43750 
vt 0.31250 0.43750 
vt 0.43750 0.43750 
vt 0.43750 0.43750 
vt 0.43750 0.43750 
vt 0.43750 0.43750 
vt 0.56250 0.43750 
vt 0.56250 0.43750 
vt 0.56250 0.43750 
vt 0.56250 0.43750 
vt 0.68750 0.43750 
vt 0.68750 0.43750 
vt 0.68750 0.43750 
vt 0.68750 0.43750 

vn 0.0 0.0 -1.0
vn 0.0 0.0 1.0
vn 1.0 0.0 0.0
vn 0.0 -1.0 0.0
vn -1.0 0.0 0.0
vn 0.0 1.0 0.0

v -31.00000 7.00000 16.00000 
v -31.00000 6.00000 16.00000 
v -32.00000 6.00000 16.00000 
v -32.00000 7.00000 16.00000 
v -31.00000 7.00000 17.00000 
v -32.00000 7.00000 17.00000 
v -32.00000 6.00000 17.00000 
v -31.00000 6.00000 17.00000 
v -31.00000 8.00000 20.00000 
v -32.00000 8.00000 20.00000 
v -32.00000 7.00000 20.00000 
v -31.00000 7.00000 20.00000 
v -31.00000 7.00000 19.00000 
v -32.00000 7.00000 19.00000 
v -32.00000 8.00000 19.00000 
v -31.00000 7.00000 18.00000 
v -32.00000 7.00000 18.00000 
v -32.00000 8.00000 18.00000 
v -32.00000 8.00000 17.00000 
v -32.00000 8.00000 16.00000 
v -31.00000 8.00000 15.00000 
v -31.00000 7.00000 15.00000 
v -32.00000 7.00000 15.00000 
v -32.00000 8.00000 15.00000 
v -31.00000 9.00000 20.00000 
v -32.00000 9.00000 20.00000 
v -32.00000 9.00000 19.00000 
v -31.00000 9.00000 19.00000 
v -32.00000 9.00000 18.00000 
v -31.00000 9.00000 18.00000 
v -32.00000 9.00000 17.00000 
v -31.00000 9.00000 17.00000 
v -32.00000 9.00000 16.00000 
v -31.00000 9.00000 16.00000 
v -32.00000 9.00000 15.00000 
v -31.00000 9.00000 15.00000 
v -31.00000 9.00000 14.00000 
v -31.00000 8.00000 14.00000 
v -32.00000 8.00000 14.00000 
v -32.00000 9.00000 14.00000 
v -30.00000 4.00000 19.00000 
v -31.00000 4.00000 19.00000 
v -31.00000 3.00000 19.00000 
v -30.00000 3.00000 19.00000 
v -30.00000 3.00000 18.00000 
v -31.00000 3.00000 18.00000 
v -31.00000 4.00000 18.00000 
v -30.00000 3.00000 17.00000 
v -31.00000 3.00000 17.00000 
v -31.00000 4.00000 17.00000 
v -30.00000 3.00000 16.00000 
v -31.00000 3.00000 16.00000 
v -31.00000 4.00000 16.00000 
v -30.00000 4.00000 15.00000 
v -30.00000 3.00000 15.00000 
v -31.00000 3.00000 15.00000 
v -31.00000 4.00000 15.00000 
v -30.00000 5.00000 19.00000 
v -31.00000 5.00000 19.00000 
v -31.00000 5.00000 18.00000 
v -31.00000 5.00000 17.00000 
v -31.00000 5.00000 16.00000 
v -30.00000 5.00000 15.00000 
v -31.00000 5.00000 15.00000 
v -30.00000 6.00000 19.00000 
v -31.00000 6.00000 19.00000 
v -31.00000 6.00000 18.00000 
v -30.00000 6.00000 15.00000 
v -31.00000 6.00000 15.00000 
v -30.00000 7.00000 20.00000 
v -31.00000 6.00000 20.00000 
v -30.00000 6.00000 20.00000 
v -30.00000 7.00000 15.00000 
v -30.00000 8.00000 20.00000 
v -30.00000 8.00000 15.00000 
v -30.00000 9.00000 20.00000 
v -30.00000 9.00000 19.00000 
v -30.00000 9.00000 14.00000 
v -30.00000 8.00000 14.00000 
v -30.00000 9.00000 15.00000 
v -30.00000 10.00000 19.00000 
v -31.00000 10.00000 19.00000 
v -31.00000 10.00000 18.00000 
v -31.00000 10.00000 17.00000 
v -31.00000 10.00000 16.00000 
v -30.00000 10.00000 15.00000 
v -31.00000 10.00000 15.00000 
v -30.00000 11.00000 19.00000 
v -31.00000 11.00000 19.00000 
v -31.00000 11.00000 18.00000 
v -31.00000 11.00000 17.00000 
v -31.00000 11.00000 16.00000 
v -30.00000 11.00000 15.00000 
v -31.00000 11.00000 15.00000 
v -30.00000 12.00000 19.00000 
v -31.00000 12.00000 19.00000 
v -31.00000 12.00000 18.00000 
v -31.00000 12.00000 17.00000 
v -31.00000 12.00000 16.00000 
v -30.00000 12.00000 15.00000 
v -31.00000 12.00000 15.00000 
v -30.00000 13.00000 19.00000 
v -31.00000 13.00000 19.00000 
v -31.00000 13.00000 18.00000 
v -30.00000 13.00000 18.00000 
v -31.00000 13.00000 17.00000 
v -30.00000 13.00000 17.00000 
v -31.00000 13.00000 16.00000 
v -30.00000 13.00000 16.00000 
v -30.00000 13.00000 15.00000 
v -31.00000 13.00000 15.00000 
v -29.00000 3.00000 19.00000 
v -30.00000 2.00000 19.00000 
v -29.00000 2.00000 19.00000 
v -29.00000 2.00000 18.00000 
v -30.00000 2.00000 18.00000 
v -29.00000 2.00000 17.00000 
v -30.00000 2.00000 17.00000 
v -29.00000 2.00000 16.00000 
v -30.00000 2.00000 16.00000 
v -29.00000 3.00000 15.00000 
v -29.00000 2.00000 15.00000 
v -30.00000 2.00000 15.00000 
v -29.00000 4.00000 19.00000 
v -29.00000 4.00000 15.00000 
v -29.00000 5.00000 19.00000 
v -29.00000 5.00000 15.00000 
v -29.00000 6.00000 19.00000 
v -29.00000 6.00000 15.00000 
v -29.00000 7.00000 20.00000 
v -29.00000 6.00000 20.00000 
v -29.00000 7.00000 15.00000 
v -29.00000 8.00000 20.00000 
v -29.00000 8.00000 15.00000 
v -29.00000 9.00000 20.00000 
v -29.00000 9.00000 19.00000 
v -29.00000 9.00000 14.00000 
v -29.00000 8.00000 14.00000 
v -29.00000 9.00000 15.00000 
v -29.00000 10.00000 19.00000 
v -29.00000 10.00000 15.00000 
v -29.00000 11.00000 19.00000 
v -29.00000 11.00000 15.00000 
v -29.00000 12.00000 19.00000 
v -29.00000 12.00000 15.00000 
v -29.00000 13.00000 19.00000 
v -29.00000 13.00000 18.00000 
v -29.00000 13.00000 17.00000 
v -29.00000 13.00000 16.00000 
v -29.00000 13.00000 15.00000 
v -28.00000 3.00000 19.00000 
v -28.00000 2.00000 19.00000 
v -28.00000 2.00000 18.00000 
v -28.00000 2.00000 17.00000 
v -28.00000 2.00000 16.00000 
v -28.00000 3.00000 15.00000 
v -28.00000 2.00000 15.00000 
v -28.00000 4.00000 19.00000 
v -28.00000 4.00000 15.00000 
v -28.00000 5.00000 19.00000 
v -28.00000 5.00000 15.00000 
v -28.00000 6.00000 20.00000 
v -29.00000 5.00000 20.00000 
v -28.00000 5.00000 20.00000 
v -28.00000 6.00000 19.00000 
v -28.00000 6.00000 15.00000 
v -28.00000 7.00000 20.00000 
v -28.00000 7.00000 15.00000 
v -28.00000 8.00000 20.00000 
v -28.00000 8.00000 15.00000 
v -28.00000 9.00000 20.00000 
v -28.00000 9.00000 19.00000 
v -28.00000 9.00000 14.00000 
v -28.00000 8.00000 14.00000 
v -28.00000 9.00000 15.00000 
v -28.00000 10.00000 19.00000 
v -28.00000 10.00000 15.00000 
v -28.00000 11.00000 19.00000 
v -28.00000 11.00000 15.00000 
v -28.00000 12.00000 19.00000 
v -28.00000 12.00000 15.00000 
v -28.00000 13.00000 19.00000 
v -28.00000 13.00000 18.00000 
v -28.00000 13.00000 17.00000 
v -28.00000 13.00000 16.00000 
v -28.00000 13.00000 15.00000 
v -27.00000 3.00000 19.00000 
v -27.00000 2.00000 19.00000 
v -27.00000 3.00000 18.00000 
v -27.00000 2.00000 18.00000 
v -27.00000 3.00000 17.00000 
v -27.00000 2.00000 17.00000 
v -27.00000 3.00000 16.00000 
v -27.00000 2.00000 16.00000 
v -27.00000 3.00000 15.00000 
v -27.00000 2.00000 15.00000 
v -27.00000 4.00000 19.00000 
v -27.00000 4.00000 15.00000 
v -27.00000 5.00000 19.00000 
v -27.00000 5.00000 15.00000 
v -27.00000 6.00000 19.00000 
v -27.00000 6.00000 15.00000 
v -27.00000 7.00000 20.00000 
v -27.00000 6.00000 20.00000 
v -27.00000 7.00000 15.00000 
v -27.00000 8.00000 20.00000 
v -27.00000 8.00000 15.00000 
v -27.00000 9.00000 20.00000 
v -27.00000 9.00000 19.00000 
v -27.00000 9.00000 14.00000 
v -27.00000 8.00000 14.00000 
v -27.00000 9.00000 15.00000 
v -27.00000 10.00000 19.00000 
v -27.00000 10.00000 15.00000 
v -27.00000 11.00000 19.00000 
v -27.00000 11.00000 15.00000 
v -27.00000 12.00000 19.00000 
v -27.00000 12.00000 15.00000 
v -27.00000 13.00000 19.00000 
v -27.00000 13.00000 18.00000 
v -27.00000 13.00000 17.00000 
v -27.00000 13.00000 16.00000 
v -27.00000 13.00000 15.00000 
v -26.00000 4.00000 19.00000 
v -26.00000 3.00000 19.00000 
v -26.00000 4.00000 18.00000 
v -26.00000 3.00000 18.00000 
v -26.00000 4.00000 17.00000 
v -26.00000 3.00000 17.00000 
v -26.00000 4.00000 16.00000 
v -26.00000 3.00000 16.00000 
v -26.00000 4.00000 15.00000 
v -26.00000 3.00000 15.00000 
v -26.00000 5.00000 19.00000 
v -26.00000 5.00000 18.00000 
v -26.00000 5.00000 17.00000 
v -26.00000 5.00000 16.00000 
v -26.00000 5.00000 15.00000 
v -26.00000 6.00000 19.00000 
v -26.00000 6.00000 18.00000 
v -26.00000 6.00000 17.00000 
v -26.00000 6.00000 16.00000 
v -26.00000 6.00000 15.00000 
v -26.00000 7.00000 20.00000 
v -26.00000 6.00000 20.00000 
v -26.00000 7.00000 19.00000 
v -26.00000 7.00000 18.00000 
v -26.00000 7.00000 17.00000 
v -26.00000 7.00000 15.00000 
v -26.00000 7.00000 16.00000 
v -26.00000 8.00000 20.00000 
v -26.00000 8.00000 15.00000 
v -26.00000 9.00000 20.00000 
v -26.00000 9.00000 19.00000 
v -26.00000 9.00000 14.00000 
v -26.00000 8.00000 14.00000 
v -26.00000 9.00000 15.00000 
v -26.00000 10.00000 19.00000 
v -26.00000 10.00000 18.00000 
v -26.00000 9.00000 18.00000 
v -26.00000 10.00000 17.00000 
v -26.00000 9.00000 17.00000 
v -26.00000 10.00000 16.00000 
v -26.00000 9.00000 16.00000 
v -26.00000 10.00000 15.00000 
v -26.00000 11.00000 19.00000 
v -26.00000 11.00000 18.00000 
v -26.00000 11.00000 17.00000 
v -26.00000 11.00000 16.00000 
v -26.00000 11.00000 15.00000 
v -26.00000 12.00000 19.00000 
v -26.00000 12.00000 18.00000 
v -26.00000 12.00000 17.00000 
v -26.00000 12.00000 16.00000 
v -26.00000 12.00000 15.00000 
v -26.00000 13.00000 19.00000 
v -26.00000 13.00000 18.00000 
v -26.00000 13.00000 17.00000 
v -26.00000 13.00000 16.00000 
v -26.00000 13.00000 15.00000 
v -25.00000 7.00000 16.00000 
v -25.00000 6.00000 16.00000 
v -25.00000 7.00000 17.00000 
v -25.00000 6.00000 17.00000 
v -25.00000 8.00000 20.00000 
v -25.00000 7.00000 20.00000 
v -25.00000 8.00000 19.00000 
v -25.00000 7.00000 19.00000 
v -25.00000 8.00000 18.00000 
v -25.00000 7.00000 18.00000 
v -25.00000 8.00000 17.00000 
v -25.00000 8.00000 16.00000 
v -25.00000 8.00000 15.00000 
v -25.00000 7.00000 15.00000 
v -25.00000 9.00000 20.00000 
v -25.00000 9.00000 19.00000 
v -25.00000 9.00000 18.00000 
v -25.00000 9.00000 17.00000 
v -25.00000 9.00000 16.00000 
v -25.00000 9.00000 15.00000 
v -25.00000 9.00000 14.00000 
v -25.00000 8.00000 14.00000 

g Cuboid_9
f 1/53/1 2/56/1 3/55/1 4/54/1
f 5/50/2 6/49/2 7/52/2 8/51/2
f 2/71/4 8/70/4 7/69/4 3/72/4
f 3/64/5 7/63/5 6/62/5 4/61/5
f 9/74/2 10/73/2 11/76/2 12/75/2
f 13/95/4 12/94/4 11/93/4 14/96/4
f 14/88/5 11/87/5 10/86/5 15/85/5
f 16/95/4 13/94/4 14/93/4 17/96/4
f 17/88/5 14/87/5 15/86/5 18/85/5
f 5/95/4 16/94/4 17/93/4 6/96/4
f 6/88/5 17/87/5 18/86/5 19/85/5
f 4/88/5 6/87/5 19/86/5 20/85/5
f 21/77/1 22/80/1 23/79/1 24/78/1
f 22/95/4 1/94/4 4/93/4 23/96/4
f 23/88/5 4/87/5 20/86/5 24/85/5
f 25/2/2 26/1/2 10/4/2 9/3/2
f 15/16/5 10/15/5 26/14/5 27/13/5
f 25/19/6 28/18/6 27/17/6 26/20/6
f 18/16/5 15/15/5 27/14/5 29/13/5
f 28/19/6 30/18/6 29/17/6 27/20/6
f 19/16/5 18/15/5 29/14/5 31/13/5
f 30/19/6 32/18/6 31/17/6 29/20/6
f 20/16/5 19/15/5 31/14/5 33/13/5
f 32/19/6 34/18/6 33/17/6 31/20/6
f 24/16/5 20/15/5 33/14/5 35/13/5
f 34/19/6 36/18/6 35/17/6 33/20/6
f 37/5/1 38/8/1 39/7/1 40/6/1
f 38/23/4 21/22/4 24/21/4 39/24/4
f 39/16/5 24/15/5 35/14/5 40/13/5
f 36/19/6 37/18/6 40/17/6 35/20/6
f 41/26/2 42/25/2 43/28/2 44/27/2
f 45/47/4 44/46/4 43/45/4 46/48/4
f 46/40/5 43/39/5 42/38/5 47/37/5
f 48/71/4 45/70/4 46/69/4 49/72/4
f 49/64/5 46/63/5 47/62/5 50/61/5
f 51/71/4 48/70/4 49/69/4 52/72/4
f 52/64/5 49/63/5 50/62/5 53/61/5
f 54/53/1 55/56/1 56/55/1 57/54/1
f 55/71/4 51/70/4 52/69/4 56/72/4
f 56/64/5 52/63/5 53/62/5 57/61/5
f 58/26/2 59/25/2 42/28/2 41/27/2
f 47/40/5 42/39/5 59/38/5 60/37/5
f 50/64/5 47/63/5 60/62/5 61/61/5
f 53/40/5 50/39/5 61/38/5 62/37/5
f 63/29/1 54/32/1 57/31/1 64/30/1
f 57/40/5 53/39/5 62/38/5 64/37/5
f 65/26/2 66/25/2 59/28/2 58/27/2
f 60/40/5 59/39/5 66/38/5 67/37/5
f 61/40/5 60/39/5 67/38/5 8/37/5
f 62/40/5 61/39/5 8/38/5 2/37/5
f 68/29/1 63/32/1 64/31/1 69/30/1
f 64/40/5 62/39/5 2/38/5 69/37/5
f 70/98/2 12/97/2 71/100/2 72/99/2
f 65/119/4 72/118/4 71/117/4 66/120/4
f 66/112/5 71/111/5 12/110/5 13/109/5
f 67/40/5 66/39/5 13/38/5 16/37/5
f 8/40/5 67/39/5 16/38/5 5/37/5
f 73/29/1 68/32/1 69/31/1 22/30/1
f 69/40/5 2/39/5 1/38/5 22/37/5
f 74/98/2 9/97/2 12/100/2 70/99/2
f 75/29/1 73/32/1 22/31/1 21/30/1
f 76/2/2 25/1/2 9/4/2 74/3/2
f 76/19/6 77/18/6 28/17/6 25/20/6
f 78/5/1 79/8/1 38/7/1 37/6/1
f 79/23/4 75/22/4 21/21/4 38/24/4
f 80/19/6 78/18/6 37/17/6 36/20/6
f 81/2/2 82/1/2 28/4/2 77/3/2
f 30/16/5 28/15/5 82/14/5 83/13/5
f 32/16/5 30/15/5 83/14/5 84/13/5
f 34/16/5 32/15/5 84/14/5 85/13/5
f 86/5/1 80/8/1 36/7/1 87/6/1
f 36/16/5 34/15/5 85/14/5 87/13/5
f 88/2/2 89/1/2 82/4/2 81/3/2
f 83/16/5 82/15/5 89/14/5 90/13/5
f 84/16/5 83/15/5 90/14/5 91/13/5
f 85/16/5 84/15/5 91/14/5 92/13/5
f 93/5/1 86/8/1 87/7/1 94/6/1
f 87/16/5 85/15/5 92/14/5 94/13/5
f 95/2/2 96/1/2 89/4/2 88/3/2
f 90/16/5 89/15/5 96/14/5 97/13/5
f 91/16/5 90/15/5 97/14/5 98/13/5
f 92/16/5 91/15/5 98/14/5 99/13/5
f 100/5/1 93/8/1 94/7/1 101/6/1
f 94/16/5 92/15/5 99/14/5 101/13/5
f 102/2/2 103/1/2 96/4/2 95/3/2
f 97/16/5 96/15/5 103/14/5 104/13/5
f 102/19/6 105/18/6 104/17/6 103/20/6
f 98/16/5 97/15/5 104/14/5 106/13/5
f 105/19/6 107/18/6 106/17/6 104/20/6
f 99/16/5 98/15/5 106/14/5 108/13/5
f 107/19/6 109/18/6 108/17/6 106/20/6
f 110/5/1 100/8/1 101/7/1 111/6/1
f 101/16/5 99/15/5 108/14/5 111/13/5
f 109/19/6 110/18/6 111/17/6 108/20/6
f 112/50/2 44/49/2 113/52/2 114/51/2
f 115/71/4 114/70/4 113/69/4 116/72/4
f 116/64/5 113/63/5 44/62/5 45/61/5
f 117/71/4 115/70/4 116/69/4 118/72/4
f 118/64/5 116/63/5 45/62/5 48/61/5
f 119/71/4 117/70/4 118/69/4 120/72/4
f 120/64/5 118/63/5 48/62/5 51/61/5
f 121/53/1 122/56/1 123/55/1 55/54/1
f 122/71/4 119/70/4 120/69/4 123/72/4
f 123/64/5 120/63/5 51/62/5 55/61/5
f 124/50/2 41/49/2 44/52/2 112/51/2
f 125/53/1 121/56/1 55/55/1 54/54/1
f 126/50/2 58/49/2 41/52/2 124/51/2
f 127/29/1 125/32/1 54/31/1 63/30/1
f 128/50/2 65/49/2 58/52/2 126/51/2
f 129/29/1 127/32/1 63/31/1 68/30/1
f 130/98/2 70/97/2 72/100/2 131/99/2
f 128/119/4 131/118/4 72/117/4 65/120/4
f 132/29/1 129/32/1 68/31/1 73/30/1
f 133/98/2 74/97/2 70/100/2 130/99/2
f 134/29/1 132/32/1 73/31/1 75/30/1
f 135/2/2 76/1/2 74/4/2 133/3/2
f 135/19/6 136/18/6 77/17/6 76/20/6
f 137/5/1 138/8/1 79/7/1 78/6/1
f 138/23/4 134/22/4 75/21/4 79/24/4
f 139/19/6 137/18/6 78/17/6 80/20/6
f 140/2/2 81/1/2 77/4/2 136/3/2
f 141/5/1 139/8/1 80/7/1 86/6/1
f 142/2/2 88/1/2 81/4/2 140/3/2
f 143/5/1 141/8/1 86/7/1 93/6/1
f 144/2/2 95/1/2 88/4/2 142/3/2
f 145/5/1 143/8/1 93/7/1 100/6/1
f 146/2/2 102/1/2 95/4/2 144/3/2
f 146/19/6 147/18/6 105/17/6 102/20/6
f 147/19/6 148/18/6 107/17/6 105/20/6
f 148/19/6 149/18/6 109/17/6 107/20/6
f 150/5/1 145/8/1 100/7/1 110/6/1
f 149/19/6 150/18/6 110/17/6 109/20/6
f 151/50/2 112/49/2 114/52/2 152/51/2
f 153/71/4 152/70/4 114/69/4 115/72/4
f 154/71/4 153/70/4 115/69/4 117/72/4
f 155/71/4 154/70/4 117/69/4 119/72/4
f 156/53/1 157/56/1 122/55/1 121/54/1
f 157/71/4 155/70/4 119/69/4 122/72/4
f 158/2/2 124/1/2 112/4/2 151/3/2
f 159/53/1 156/56/1 121/55/1 125/54/1
f 160/50/2 126/49/2 124/52/2 158/51/2
f 161/29/1 159/32/1 125/31/1 127/30/1
f 162/50/2 131/49/2 163/52/2 164/51/2
f 165/58/3 162/57/3 164/60/3 160/59/3
f 160/71/4 164/70/4 163/69/4 126/72/4
f 126/64/5 163/63/5 131/62/5 128/61/5
f 166/29/1 161/32/1 127/31/1 129/30/1
f 167/50/2 130/49/2 131/52/2 162/51/2
f 168/29/1 166/32/1 129/31/1 132/30/1
f 169/74/2 133/73/2 130/76/2 167/75/2
f 170/29/1 168/32/1 132/31/1 134/30/1
f 171/2/2 135/1/2 133/4/2 169/3/2
f 171/19/6 172/18/6 136/17/6 135/20/6
f 173/5/1 174/8/1 138/7/1 137/6/1
f 174/23/4 170/22/4 134/21/4 138/24/4
f 175/19/6 173/18/6 137/17/6 139/20/6
f 176/2/2 140/1/2 136/4/2 172/3/2
f 177/5/1 175/8/1 139/7/1 141/6/1
f 178/2/2 142/1/2 140/4/2 176/3/2
f 179/5/1 177/8/1 141/7/1 143/6/1
f 180/2/2 144/1/2 142/4/2 178/3/2
f 181/5/1 179/8/1 143/7/1 145/6/1
f 182/2/2 146/1/2 144/4/2 180/3/2
f 182/19/6 183/18/6 147/17/6 146/20/6
f 183/19/6 184/18/6 148/17/6 147/20/6
f 184/19/6 185/18/6 149/17/6 148/20/6
f 186/5/1 181/8/1 145/7/1 150/6/1
f 185/19/6 186/18/6 150/17/6 149/20/6
f 187/50/2 151/49/2 152/52/2 188/51/2
f 189/58/3 187/57/3 188/60/3 190/59/3
f 190/71/4 188/70/4 152/69/4 153/72/4
f 191/58/3 189/57/3 190/60/3 192/59/3
f 192/71/4 190/70/4 153/69/4 154/72/4
f 193/58/3 191/57/3 192/60/3 194/59/3
f 194/71/4 192/70/4 154/69/4 155/72/4
f 195/53/1 196/56/1 157/55/1 156/54/1
f 195/58/3 193/57/3 194/60/3 196/59/3
f 196/71/4 194/70/4 155/69/4 157/72/4
f 197/50/2 158/49/2 151/52/2 187/51/2
f 198/53/1 195/56/1 156/55/1 159/54/1
f 199/50/2 160/49/2 158/52/2 197/51/2
f 200/29/1 198/32/1 159/31/1 161/30/1
f 201/50/2 165/49/2 160/52/2 199/51/2
f 202/29/1 200/32/1 161/31/1 166/30/1
f 203/98/2 167/97/2 162/100/2 204/99/2
f 201/119/4 204/118/4 162/117/4 165/120/4
f 205/29/1 202/32/1 166/31/1 168/30/1
f 206/98/2 169/97/2 167/100/2 203/99/2
f 207/29/1 205/32/1 168/31/1 170/30/1
f 208/2/2 171/1/2 169/4/2 206/3/2
f 208/19/6 209/18/6 172/17/6 171/20/6
f 210/5/1 211/8/1 174/7/1 173/6/1
f 211/23/4 207/22/4 170/21/4 174/24/4
f 212/19/6 210/18/6 173/17/6 175/20/6
f 213/2/2 176/1/2 172/4/2 209/3/2
f 214/5/1 212/8/1 175/7/1 177/6/1
f 215/2/2 178/1/2 176/4/2 213/3/2
f 216/5/1 214/8/1 177/7/1 179/6/1
f 217/2/2 180/1/2 178/4/2 215/3/2
f 218/5/1 216/8/1 179/7/1 181/6/1
f 219/2/2 182/1/2 180/4/2 217/3/2
f 219/19/6 220/18/6 183/17/6 182/20/6
f 220/19/6 221/18/6 184/17/6 183/20/6
f 221/19/6 222/18/6 185/17/6 184/20/6
f 223/5/1 218/8/1 181/7/1 186/6/1
f 222/19/6 223/18/6 186/17/6 185/20/6
f 224/26/2 197/25/2 187/28/2 225/27/2
f 226/34/3 224/33/3 225/36/3 227/35/3
f 227/47/4 225/46/4 187/45/4 189/48/4
f 228/58/3 226/57/3 227/60/3 229/59/3
f 229/71/4 227/70/4 189/69/4 191/72/4
f 230/58/3 228/57/3 229/60/3 231/59/3
f 231/71/4 229/70/4 191/69/4 193/72/4
f 232/53/1 233/56/1 195/55/1 198/54/1
f 232/58/3 230/57/3 231/60/3 233/59/3
f 233/71/4 231/70/4 193/69/4 195/72/4
f 234/26/2 199/25/2 197/28/2 224/27/2
f 235/34/3 234/33/3 224/36/3 226/35/3
f 236/58/3 235/57/3 226/60/3 228/59/3
f 237/34/3 236/33/3 228/36/3 230/35/3
f 238/29/1 232/32/1 198/31/1 200/30/1
f 238/34/3 237/33/3 230/36/3 232/35/3
f 239/26/2 201/25/2 199/28/2 234/27/2
f 240/34/3 239/33/3 234/36/3 235/35/3
f 241/34/3 240/33/3 235/36/3 236/35/3
f 242/34/3 241/33/3 236/36/3 237/35/3
f 243/29/1 238/32/1 200/31/1 202/30/1
f 243/34/3 242/33/3 237/36/3 238/35/3
f 244/98/2 203/97/2 204/100/2 245/99/2
f 246/106/3 244/105/3 245/108/3 239/107/3
f 239/119/4 245/118/4 204/117/4 201/120/4
f 247/34/3 246/33/3 239/36/3 240/35/3
f 248/34/3 247/33/3 240/36/3 241/35/3
f 249/29/1 243/32/1 202/31/1 205/30/1
f 249/34/3 250/33/3 242/36/3 243/35/3
f 251/98/2 206/97/2 203/100/2 244/99/2
f 252/29/1 249/32/1 205/31/1 207/30/1
f 253/2/2 208/1/2 206/4/2 251/3/2
f 253/19/6 254/18/6 209/17/6 208/20/6
f 255/5/1 256/8/1 211/7/1 210/6/1
f 256/23/4 252/22/4 207/21/4 211/24/4
f 257/19/6 255/18/6 210/17/6 212/20/6
f 258/2/2 213/1/2 209/4/2 254/3/2
f 259/10/3 258/9/3 254/12/3 260/11/3
f 261/10/3 259/9/3 260/12/3 262/11/3
f 263/10/3 261/9/3 262/12/3 264/11/3
f 265/5/1 257/8/1 212/7/1 214/6/1
f 265/10/3 263/9/3 264/12/3 257/11/3
f 266/2/2 215/1/2 213/4/2 258/3/2
f 267/10/3 266/9/3 258/12/3 259/11/3
f 268/10/3 267/9/3 259/12/3 261/11/3
f 269/10/3 268/9/3 261/12/3 263/11/3
f 270/5/1 265/8/1 214/7/1 216/6/1
f 270/10/3 269/9/3 263/12/3 265/11/3
f 271/2/2 217/1/2 215/4/2 266/3/2
f 272/10/3 271/9/3 266/12/3 267/11/3
f 273/10/3 272/9/3 267/12/3 268/11/3
f 274/10/3 273/9/3 268/12/3 269/11/3
f 275/5/1 270/8/1 216/7/1 218/6/1
f 275/10/3 274/9/3 269/12/3 270/11/3
f 276/2/2 219/1/2 217/4/2 271/3/2
f 277/10/3 276/9/3 271/12/3 272/11/3
f 276/19/6 277/18/6 220/17/6 219/20/6
f 278/10/3 277/9/3 272/12/3 273/11/3
f 277/19/6 278/18/6 221/17/6 220/20/6
f 279/10/3 278/9/3 273/12/3 274/11/3
f 278/19/6 279/18/6 222/17/6 221/20/6
f 280/5/1 275/8/1 218/7/1 223/6/1
f 280/10/3 279/9/3 274/12/3 275/11/3
f 279/19/6 280/18/6 223/17/6 222/20/6
f 281/53/1 282/56/1 242/55/1 250/54/1
f 283/50/2 248/49/2 241/52/2 284/51/2
f 281/58/3 283/57/3 284/60/3 282/59/3
f 282/71/4 284/70/4 241/69/4 242/72/4
f 285/74/2 251/73/2 244/76/2 286/75/2
f 287/82/3 285/81/3 286/84/3 288/83/3
f 288/95/4 286/94/4 244/93/4 246/96/4
f 289/82/3 287/81/3 288/84/3 290/83/3
f 290/95/4 288/94/4 246/93/4 247/96/4
f 291/82/3 289/81/3 290/84/3 283/83/3
f 283/95/4 290/94/4 247/93/4 248/96/4
f 292/82/3 291/81/3 283/84/3 281/83/3
f 293/77/1 294/80/1 249/79/1 252/78/1
f 293/82/3 292/81/3 281/84/3 294/83/3
f 294/95/4 281/94/4 250/93/4 249/96/4
f 295/2/2 253/1/2 251/4/2 285/3/2
f 296/10/3 295/9/3 285/12/3 287/11/3
f 295/19/6 296/18/6 254/17/6 253/20/6
f 297/10/3 296/9/3 287/12/3 289/11/3
f 296/19/6 297/18/6 260/17/6 254/20/6
f 298/10/3 297/9/3 289/12/3 291/11/3
f 297/19/6 298/18/6 262/17/6 260/20/6
f 299/10/3 298/9/3 291/12/3 292/11/3
f 298/19/6 299/18/6 264/17/6 262/20/6
f 300/10/3 299/9/3 292/12/3 293/11/3
f 299/19/6 300/18/6 257/17/6 264/20/6
f 301/5/1 302/8/1 256/7/1 255/6/1
f 301/10/3 300/9/3 293/12/3 302/11/3
f 302/23/4 293/22/4 252/21/4 256/24/4
f 300/19/6 301/18/6 255/17/6 257/20/6
